<mxfile host="app.diagrams.net" agent="Mozilla/5.0 (X11; Linux x86_64) AppleWebKit/537.36 (KHTML, like Gecko) Chrome/128.0.0.0 Safari/537.36" version="24.7.7">
  <diagram name="Page-1" id="90a13364-a465-7bf4-72fc-28e22215d7a0">
    <mxGraphModel grid="1" page="1" gridSize="10" guides="1" tooltips="1" connect="1" arrows="1" fold="1" pageScale="1.5" pageWidth="1169" pageHeight="826" background="none" math="0" shadow="0">
      <root>
        <mxCell id="0" style=";html=1;" />
        <mxCell id="1" style=";html=1;" parent="0" />
        <mxCell id="hilotczi9797B5mhuSAA-18" value="" style="ellipse;shape=cloud;whiteSpace=wrap;html=1;" vertex="1" parent="1">
          <mxGeometry x="1000" y="550" width="480" height="510" as="geometry" />
        </mxCell>
        <mxCell id="hilotczi9797B5mhuSAA-4" value="" style="rounded=0;whiteSpace=wrap;html=1;shadow=1;" vertex="1" parent="1">
          <mxGeometry x="400" y="322" width="530" height="690" as="geometry" />
        </mxCell>
        <mxCell id="hilotczi9797B5mhuSAA-6" value="&lt;b&gt;&lt;font style=&quot;font-size: 14px;&quot;&gt;&quot;Интернет-магазин&quot;&lt;/font&gt;&lt;/b&gt;" style="text;html=1;align=center;verticalAlign=middle;whiteSpace=wrap;rounded=0;" vertex="1" parent="1">
          <mxGeometry x="540" y="320" width="230" height="30" as="geometry" />
        </mxCell>
        <mxCell id="hilotczi9797B5mhuSAA-7" value="&lt;b&gt;&lt;font style=&quot;font-size: 14px;&quot;&gt;Внешние сервисы&lt;/font&gt;&lt;/b&gt;" style="text;html=1;align=center;verticalAlign=middle;whiteSpace=wrap;rounded=0;" vertex="1" parent="1">
          <mxGeometry x="1115" y="657" width="230" height="30" as="geometry" />
        </mxCell>
        <mxCell id="NoRryltUvSvKx5R-t3G7-22" style="edgeStyle=orthogonalEdgeStyle;rounded=0;orthogonalLoop=1;jettySize=auto;html=1;exitX=0.5;exitY=0.5;exitDx=0;exitDy=0;exitPerimeter=0;" edge="1" parent="1" source="hilotczi9797B5mhuSAA-8" target="hilotczi9797B5mhuSAA-16">
          <mxGeometry relative="1" as="geometry">
            <Array as="points">
              <mxPoint x="230" y="640" />
              <mxPoint x="230" y="1050" />
              <mxPoint x="1350" y="1050" />
              <mxPoint x="1350" y="740" />
            </Array>
          </mxGeometry>
        </mxCell>
        <mxCell id="NoRryltUvSvKx5R-t3G7-23" value="8. submitPayment" style="edgeLabel;html=1;align=center;verticalAlign=middle;resizable=0;points=[];" connectable="0" vertex="1" parent="NoRryltUvSvKx5R-t3G7-22">
          <mxGeometry x="0.0243" y="2" relative="1" as="geometry">
            <mxPoint as="offset" />
          </mxGeometry>
        </mxCell>
        <mxCell id="hilotczi9797B5mhuSAA-8" value="Покупатель" style="shape=umlActor;verticalLabelPosition=bottom;verticalAlign=top;html=1;outlineConnect=0;" vertex="1" parent="1">
          <mxGeometry x="170" y="610" width="30" height="60" as="geometry" />
        </mxCell>
        <mxCell id="hilotczi9797B5mhuSAA-10" value="Cart service" style="verticalLabelPosition=middle;verticalAlign=middle;html=1;shape=hexagon;perimeter=hexagonPerimeter2;arcSize=6;size=0.27;labelPosition=center;align=center;" vertex="1" parent="1">
          <mxGeometry x="487" y="510" width="100" height="80" as="geometry" />
        </mxCell>
        <mxCell id="NoRryltUvSvKx5R-t3G7-15" style="edgeStyle=orthogonalEdgeStyle;rounded=0;orthogonalLoop=1;jettySize=auto;html=1;exitX=0.375;exitY=0;exitDx=0;exitDy=0;" edge="1" parent="1" target="hilotczi9797B5mhuSAA-10">
          <mxGeometry relative="1" as="geometry">
            <mxPoint x="536.5" y="657" as="sourcePoint" />
            <mxPoint x="536.5" y="610" as="targetPoint" />
          </mxGeometry>
        </mxCell>
        <mxCell id="NoRryltUvSvKx5R-t3G7-16" value="4. startCartOrdering /&lt;br&gt;12a. compensateCartOrderingStart /&lt;br&gt;5. getCart /&lt;br&gt;11. commitCartOrdered" style="edgeLabel;html=1;align=center;verticalAlign=middle;resizable=0;points=[];" connectable="0" vertex="1" parent="NoRryltUvSvKx5R-t3G7-15">
          <mxGeometry x="-0.0213" y="3" relative="1" as="geometry">
            <mxPoint x="-33" y="-4" as="offset" />
          </mxGeometry>
        </mxCell>
        <mxCell id="hilotczi9797B5mhuSAA-11" value="Checkout&lt;div&gt;service&lt;/div&gt;" style="verticalLabelPosition=middle;verticalAlign=middle;html=1;shape=hexagon;perimeter=hexagonPerimeter2;arcSize=6;size=0.27;labelPosition=center;align=center;" vertex="1" parent="1">
          <mxGeometry x="487" y="657" width="100" height="80" as="geometry" />
        </mxCell>
        <mxCell id="hilotczi9797B5mhuSAA-12" value="Order service" style="verticalLabelPosition=middle;verticalAlign=middle;html=1;shape=hexagon;perimeter=hexagonPerimeter2;arcSize=6;size=0.3;labelPosition=center;align=center;" vertex="1" parent="1">
          <mxGeometry x="490" y="800" width="100" height="80" as="geometry" />
        </mxCell>
        <mxCell id="hilotczi9797B5mhuSAA-13" value="Stock service" style="verticalLabelPosition=middle;verticalAlign=middle;html=1;shape=hexagon;perimeter=hexagonPerimeter2;arcSize=6;size=0.27;labelPosition=center;align=center;" vertex="1" parent="1">
          <mxGeometry x="790" y="440" width="100" height="80" as="geometry" />
        </mxCell>
        <mxCell id="hilotczi9797B5mhuSAA-16" value="Payment&lt;div&gt;system&lt;/div&gt;" style="verticalLabelPosition=middle;verticalAlign=middle;html=1;shape=hexagon;perimeter=hexagonPerimeter2;arcSize=6;size=0.27;labelPosition=center;align=center;" vertex="1" parent="1">
          <mxGeometry x="1200" y="700" width="100" height="80" as="geometry" />
        </mxCell>
        <mxCell id="hilotczi9797B5mhuSAA-21" value="" style="endArrow=classic;html=1;rounded=0;exitX=0.5;exitY=0.5;exitDx=0;exitDy=0;exitPerimeter=0;entryX=0;entryY=0.5;entryDx=0;entryDy=0;" edge="1" parent="1" source="hilotczi9797B5mhuSAA-8" target="hilotczi9797B5mhuSAA-10">
          <mxGeometry width="50" height="50" relative="1" as="geometry">
            <mxPoint x="210" y="650" as="sourcePoint" />
            <mxPoint x="370" y="630" as="targetPoint" />
          </mxGeometry>
        </mxCell>
        <mxCell id="hilotczi9797B5mhuSAA-23" value="1. newCustomerCartLineItem&lt;div&gt;...&lt;/div&gt;" style="edgeLabel;html=1;align=center;verticalAlign=middle;resizable=0;points=[];" connectable="0" vertex="1" parent="hilotczi9797B5mhuSAA-21">
          <mxGeometry x="-0.1839" relative="1" as="geometry">
            <mxPoint as="offset" />
          </mxGeometry>
        </mxCell>
        <mxCell id="hilotczi9797B5mhuSAA-25" value="" style="endArrow=classic;html=1;rounded=0;exitX=0.5;exitY=0.5;exitDx=0;exitDy=0;exitPerimeter=0;entryX=0;entryY=0.5;entryDx=0;entryDy=0;" edge="1" parent="1" source="hilotczi9797B5mhuSAA-8" target="hilotczi9797B5mhuSAA-12">
          <mxGeometry width="50" height="50" relative="1" as="geometry">
            <mxPoint x="320" y="680" as="sourcePoint" />
            <mxPoint x="370" y="630" as="targetPoint" />
          </mxGeometry>
        </mxCell>
        <mxCell id="hilotczi9797B5mhuSAA-26" value="getOrder /&lt;br&gt;..." style="edgeLabel;html=1;align=center;verticalAlign=middle;resizable=0;points=[];" connectable="0" vertex="1" parent="hilotczi9797B5mhuSAA-25">
          <mxGeometry x="-0.1361" y="-2" relative="1" as="geometry">
            <mxPoint as="offset" />
          </mxGeometry>
        </mxCell>
        <mxCell id="hilotczi9797B5mhuSAA-27" value="" style="endArrow=classic;html=1;rounded=0;exitX=0.5;exitY=0.5;exitDx=0;exitDy=0;exitPerimeter=0;entryX=0;entryY=0.5;entryDx=0;entryDy=0;" edge="1" parent="1" source="hilotczi9797B5mhuSAA-8" target="hilotczi9797B5mhuSAA-11">
          <mxGeometry width="50" height="50" relative="1" as="geometry">
            <mxPoint x="320" y="680" as="sourcePoint" />
            <mxPoint x="370" y="630" as="targetPoint" />
          </mxGeometry>
        </mxCell>
        <mxCell id="hilotczi9797B5mhuSAA-28" value="3. checkout" style="edgeLabel;html=1;align=center;verticalAlign=middle;resizable=0;points=[];" connectable="0" vertex="1" parent="hilotczi9797B5mhuSAA-27">
          <mxGeometry x="-0.1615" y="-1" relative="1" as="geometry">
            <mxPoint as="offset" />
          </mxGeometry>
        </mxCell>
        <mxCell id="hilotczi9797B5mhuSAA-29" value="" style="endArrow=classic;html=1;rounded=0;exitX=0;exitY=0.5;exitDx=0;exitDy=0;entryX=1;entryY=0.5;entryDx=0;entryDy=0;" edge="1" parent="1" source="hilotczi9797B5mhuSAA-16" target="hilotczi9797B5mhuSAA-11">
          <mxGeometry width="50" height="50" relative="1" as="geometry">
            <mxPoint x="800" y="680" as="sourcePoint" />
            <mxPoint x="850" y="630" as="targetPoint" />
          </mxGeometry>
        </mxCell>
        <mxCell id="hilotczi9797B5mhuSAA-30" value="9. confirmPayment" style="edgeLabel;html=1;align=center;verticalAlign=middle;resizable=0;points=[];" connectable="0" vertex="1" parent="hilotczi9797B5mhuSAA-29">
          <mxGeometry x="0.1078" y="-1" relative="1" as="geometry">
            <mxPoint as="offset" />
          </mxGeometry>
        </mxCell>
        <mxCell id="NoRryltUvSvKx5R-t3G7-12" value="" style="endArrow=classic;html=1;rounded=0;exitX=1;exitY=0.25;exitDx=0;exitDy=0;" edge="1" parent="1" source="hilotczi9797B5mhuSAA-10" target="hilotczi9797B5mhuSAA-13">
          <mxGeometry width="50" height="50" relative="1" as="geometry">
            <mxPoint x="650" y="550" as="sourcePoint" />
            <mxPoint x="700" y="500" as="targetPoint" />
          </mxGeometry>
        </mxCell>
        <mxCell id="NoRryltUvSvKx5R-t3G7-13" value="2. reserveProductForCart" style="edgeLabel;html=1;align=center;verticalAlign=middle;resizable=0;points=[];" connectable="0" vertex="1" parent="NoRryltUvSvKx5R-t3G7-12">
          <mxGeometry x="-0.182" y="1" relative="1" as="geometry">
            <mxPoint y="1" as="offset" />
          </mxGeometry>
        </mxCell>
        <mxCell id="NoRryltUvSvKx5R-t3G7-18" value="" style="endArrow=classic;html=1;rounded=0;entryX=0.5;entryY=0;entryDx=0;entryDy=0;" edge="1" parent="1" source="hilotczi9797B5mhuSAA-11" target="hilotczi9797B5mhuSAA-12">
          <mxGeometry width="50" height="50" relative="1" as="geometry">
            <mxPoint x="540" y="740" as="sourcePoint" />
            <mxPoint x="530" y="750" as="targetPoint" />
          </mxGeometry>
        </mxCell>
        <mxCell id="NoRryltUvSvKx5R-t3G7-19" value="6. createOrder /&lt;br&gt;11a. compensateOrderCreation /&lt;br&gt;10. commitOrderCharged" style="edgeLabel;html=1;align=center;verticalAlign=middle;resizable=0;points=[];" connectable="0" vertex="1" parent="NoRryltUvSvKx5R-t3G7-18">
          <mxGeometry x="-0.0665" relative="1" as="geometry">
            <mxPoint x="-52" y="-6" as="offset" />
          </mxGeometry>
        </mxCell>
        <mxCell id="NoRryltUvSvKx5R-t3G7-24" value="" style="endArrow=classic;html=1;rounded=0;exitX=1;exitY=0.25;exitDx=0;exitDy=0;" edge="1" parent="1" source="hilotczi9797B5mhuSAA-11" target="hilotczi9797B5mhuSAA-13">
          <mxGeometry width="50" height="50" relative="1" as="geometry">
            <mxPoint x="670" y="710" as="sourcePoint" />
            <mxPoint x="720" y="660" as="targetPoint" />
          </mxGeometry>
        </mxCell>
        <mxCell id="NoRryltUvSvKx5R-t3G7-25" value="7. reserveProductsForOrder /&lt;br&gt;10a. compensateProductReserveForOrder" style="edgeLabel;html=1;align=center;verticalAlign=middle;resizable=0;points=[];" connectable="0" vertex="1" parent="NoRryltUvSvKx5R-t3G7-24">
          <mxGeometry x="0.1405" relative="1" as="geometry">
            <mxPoint x="-28" y="9" as="offset" />
          </mxGeometry>
        </mxCell>
      </root>
    </mxGraphModel>
  </diagram>
</mxfile>
